<svg width="85" height="85" viewBox="0 0 85 85" fill="none" xmlns="http://www.w3.org/2000/svg">
<path d="M41.4603 25.2936C41.7123 25.6106 42.095 25.7952 42.4999 25.7952C42.9048 25.7952 43.2875 25.6106 43.5395 25.2936L46.4349 21.6521C46.8915 21.078 46.796 20.2424 46.222 19.7859C45.6477 19.3294 44.8121 19.4248 44.3558 19.9989L43.828 20.6628V10.791C43.828 10.0576 43.2333 9.46289 42.4999 9.46289C41.7664 9.46289 41.1718 10.0576 41.1718 10.791V20.6626L40.644 19.9989C40.1874 19.4248 39.3521 19.3292 38.778 19.7859C38.2039 20.2424 38.1084 21.0778 38.565 21.6521L41.4603 25.2936Z" fill="#DBAF6B"/>
<path d="M1.83984 75.5372H21.698C22.4314 75.5372 23.0261 74.9425 23.0261 74.209C23.0261 73.4756 22.4314 72.8809 21.698 72.8809H3.16797V72.041C3.76131 65.7774 8.94714 61.0616 15.2541 61.0616C18.1892 61.0616 21.0223 62.1229 23.2311 64.0499C23.784 64.532 24.6228 64.4749 25.1051 63.9222C25.5874 63.3694 25.5301 62.5305 24.9774 62.0482C23.557 60.8091 21.9239 59.8669 20.1738 59.2502C21.8972 57.8288 22.9975 55.6779 22.9975 53.2748C22.9975 49.005 19.5238 45.5315 15.2542 45.5315C10.9846 45.5315 7.51077 49.005 7.51077 53.2748C7.51077 55.6769 8.61013 57.8268 10.332 59.2482C8.46486 59.9063 6.73349 60.9366 5.24532 62.3039C2.52648 64.8023 0.847236 68.1961 0.517031 71.8604C0.513545 71.9001 0.511719 71.9398 0.511719 71.9796V74.2089C0.511719 74.9423 1.10639 75.537 1.83984 75.537V75.5372ZM10.167 53.2748C10.167 50.4698 12.4491 48.1877 15.2542 48.1877C18.0594 48.1877 20.3413 50.4698 20.3413 53.2748C20.3413 56.0798 18.0592 58.362 15.2542 58.362C12.4492 58.362 10.167 56.08 10.167 53.2748Z" fill="#DBAF6B"/>
<path d="M22.6222 29.4463L21.7799 29.3502C21.0516 29.2677 20.393 29.7903 20.3098 30.5191C20.2266 31.2479 20.7499 31.906 21.4787 31.9892L26.1011 32.5168C26.1514 32.5226 26.2017 32.5254 26.2518 32.5254C26.602 32.5254 26.9403 32.3869 27.1908 32.1364C27.4772 31.8502 27.6171 31.4489 27.5713 31.0467L27.0437 26.4243C26.9606 25.6955 26.3025 25.1719 25.5737 25.2554C24.8449 25.3386 24.3216 25.9968 24.4047 26.7255L24.5009 27.5682L17.5204 20.5877C17.0018 20.0691 16.1609 20.0691 15.6423 20.5877C15.1235 21.1063 15.1235 21.9472 15.6423 22.4658L22.6226 29.4461L22.6222 29.4463Z" fill="#DBAF6B"/>
<path d="M24.0273 71.2399C24.0238 71.2796 24.022 71.3193 24.022 71.3591V74.2091C24.022 74.9426 24.6166 75.5372 25.3501 75.5372H59.6496C60.383 75.5372 60.9777 74.9426 60.9777 74.2091V71.3591C60.9777 71.3193 60.9759 71.2796 60.9724 71.2399C60.5585 66.6469 58.4538 62.393 55.0456 59.2612C53.0071 57.3881 50.6062 56.0153 48.0151 55.2098C50.4422 53.4807 52.0296 50.646 52.0296 47.4456C52.0296 42.1908 47.7546 37.9158 42.4998 37.9158C37.2451 37.9158 32.97 42.1908 32.97 47.4456C32.97 50.646 34.5575 53.4807 36.9846 55.2098C34.3936 56.0153 31.9925 57.3882 29.954 59.2612C26.5459 62.393 24.441 66.6469 24.0273 71.2399ZM35.6263 47.4456C35.6263 43.6554 38.7097 40.572 42.4998 40.572C46.29 40.572 49.3734 43.6554 49.3734 47.4456C49.3734 51.2357 46.29 54.3189 42.4998 54.3189C38.7097 54.3189 35.6263 51.2355 35.6263 47.4456ZM42.4998 57.0306C50.7609 57.0306 57.5523 63.2127 58.3215 71.4199V72.8808H26.6782V71.4199C27.4474 63.2126 34.2387 57.0306 42.4998 57.0306Z" fill="#DBAF6B"/>
<path d="M58.7479 32.5255C58.7979 32.5255 58.8482 32.5226 58.8987 32.5168L63.521 31.9894C64.2499 31.9062 64.7731 31.2481 64.69 30.5193C64.6068 29.7907 63.9495 29.2664 63.2199 29.3504L62.3774 29.4465L69.3577 22.4661C69.8764 21.9475 69.8764 21.1066 69.3577 20.5879C68.839 20.0693 67.9982 20.0693 67.4795 20.5879L60.4992 27.5682L60.5953 26.7257C60.6785 25.9969 60.1552 25.3388 59.4264 25.2556C58.6971 25.1735 58.0395 25.6958 57.9564 26.4246L57.4288 31.0468C57.3828 31.449 57.5229 31.8503 57.8093 32.1365C58.0596 32.387 58.3981 32.5255 58.7483 32.5255H58.7479Z" fill="#DBAF6B"/>
<path d="M62.0025 53.2749C62.0025 55.678 63.1028 57.8288 64.8263 59.2503C63.0761 59.8672 61.443 60.8092 60.0226 62.0483C59.4699 62.5306 59.4128 63.3695 59.8949 63.9223C60.3772 64.475 61.2161 64.5321 61.7689 64.05C63.9776 62.123 66.8106 61.0617 69.7458 61.0617C76.0529 61.0617 81.2387 65.7773 81.8321 72.0411V72.881H63.3021C62.5686 72.881 61.9739 73.4757 61.9739 74.2091C61.9739 74.9426 62.5686 75.5372 63.3021 75.5372H83.1602C83.8936 75.5372 84.4883 74.9426 84.4883 74.2091V71.9799C84.4883 71.94 84.4865 71.9003 84.483 71.8607C84.1528 68.1964 82.4735 64.8023 79.7547 62.3041C78.2665 60.9367 76.535 59.9065 74.6678 59.2485C76.3899 57.827 77.4893 55.677 77.4893 53.275C77.4893 49.0053 74.0155 45.5317 69.7458 45.5317C65.476 45.5317 62.0025 49.0051 62.0025 53.2749ZM74.8328 53.2749C74.8328 56.0799 72.5508 58.3621 69.7456 58.3621C66.9405 58.3621 64.6586 56.08 64.6586 53.2749C64.6586 50.4697 66.9406 48.1878 69.7456 48.1878C72.5506 48.1878 74.8328 50.4699 74.8328 53.2749Z" fill="#DBAF6B"/>
<path d="M26.1664 49.4851C26.2563 50.2131 26.9199 50.7301 27.6474 50.6402C28.3754 50.5503 28.8925 49.887 28.8025 49.1592C28.7328 48.5946 28.6973 48.018 28.6973 47.4456C28.6973 39.8348 34.889 33.6431 42.4998 33.6431C50.1106 33.6431 56.3023 39.8348 56.3023 47.4456C56.3023 48.0187 56.267 48.5951 56.1971 49.1591C56.1071 49.887 56.6241 50.5501 57.3521 50.6402C57.4075 50.6471 57.4625 50.6505 57.5169 50.6505C58.1775 50.6505 58.7501 50.158 58.8333 49.4854C58.9164 48.8137 58.9586 48.1274 58.9586 47.4456C58.9586 38.3702 51.5752 30.9868 42.4998 30.9868C33.4244 30.9868 26.041 38.3702 26.041 47.4456C26.041 48.1266 26.0832 48.8126 26.1664 49.4851Z" fill="#DBAF6B"/>
</svg>
