<svg width="72" height="72" viewBox="0 0 72 72" fill="none" xmlns="http://www.w3.org/2000/svg">
<path d="M21.5887 30.4409C21.5886 30.5887 21.6177 30.735 21.6742 30.8715C21.7308 31.008 21.8136 31.132 21.9181 31.2365C22.0226 31.341 22.1466 31.4238 22.2831 31.4804C22.4196 31.5369 22.5659 31.5659 22.7137 31.5659H29.2978C29.4455 31.5659 29.5918 31.5369 29.7284 31.4804C29.8649 31.4238 29.9889 31.341 30.0934 31.2365C30.1978 31.132 30.2807 31.008 30.3372 30.8715C30.3938 30.735 30.4228 30.5887 30.4228 30.4409V24.8818C31.8957 24.6177 33.2288 23.8442 34.189 22.6965C35.1492 21.5488 35.6753 20.1001 35.6753 18.6037C35.6753 17.1073 35.1492 15.6586 34.189 14.5109C33.2288 13.3632 31.8957 12.5896 30.4228 12.3256V6.76758C30.4228 6.61983 30.3938 6.47352 30.3372 6.33701C30.2807 6.2005 30.1978 6.07647 30.0934 5.97199C29.9889 5.86752 29.8649 5.78465 29.7284 5.72813C29.5918 5.67161 29.4455 5.64254 29.2978 5.64258H9.45099C8.13841 5.6439 6.87996 6.16586 5.95177 7.09394C5.02358 8.02202 4.50147 9.28042 4.5 10.593V30.4409C4.49996 30.5887 4.52903 30.735 4.58555 30.8715C4.64208 31.008 4.72494 31.132 4.82942 31.2365C4.93389 31.341 5.05792 31.4238 5.19443 31.4804C5.33094 31.5369 5.47725 31.5659 5.625 31.5659H12.2091C12.3569 31.5659 12.5032 31.5369 12.6397 31.4804C12.7762 31.4238 12.9002 31.341 13.0047 31.2365C13.1092 31.132 13.192 31.008 13.2486 30.8715C13.3051 30.735 13.3341 30.5887 13.3341 30.4409C13.346 29.3541 13.7861 28.3159 14.5588 27.5516C15.3315 26.7873 16.3745 26.3586 17.4614 26.3586C18.5483 26.3586 19.5913 26.7873 20.364 27.5516C21.1367 28.3159 21.5768 29.3541 21.5887 30.4409ZM11.1836 29.3159H6.75V10.593C6.75097 9.877 7.03587 9.19062 7.54221 8.68438C8.04855 8.17815 8.73499 7.8934 9.45099 7.89258H28.1728V13.3517C28.1728 13.4994 28.2018 13.6457 28.2583 13.7822C28.3149 13.9187 28.3977 14.0428 28.5022 14.1473C28.6067 14.2517 28.7307 14.3346 28.8672 14.3911C29.0037 14.4476 29.15 14.4767 29.2978 14.4767C30.3843 14.4889 31.4222 14.929 32.1863 15.7017C32.9503 16.4744 33.3788 17.5171 33.3788 18.6038C33.3788 19.6904 32.9502 20.7331 32.1862 21.5058C31.4221 22.2784 30.3842 22.7186 29.2977 22.7307C29.1499 22.7307 29.0036 22.7598 28.8671 22.8163C28.7306 22.8728 28.6066 22.9557 28.5022 23.0602C28.3977 23.1646 28.3148 23.2887 28.2583 23.4252C28.2018 23.5617 28.1727 23.708 28.1728 23.8557V29.3159H23.7393C23.4646 27.8517 22.6869 26.5295 21.5405 25.5781C20.3941 24.6267 18.9512 24.106 17.4614 24.106C15.9716 24.106 14.5287 24.6267 13.3823 25.5781C12.2359 26.5295 11.4582 27.8517 11.1836 29.3159Z" fill="#DBAF6B"/>
<path d="M62.549 17.4792H42.7022C42.5544 17.4792 42.4081 17.5083 42.2716 17.5648C42.1351 17.6213 42.011 17.7042 41.9066 17.8087C41.8021 17.9131 41.7192 18.0372 41.6627 18.1737C41.6062 18.3102 41.5771 18.4565 41.5772 18.6042V25.1884C41.5771 25.3361 41.6062 25.4824 41.6627 25.6189C41.7192 25.7554 41.8021 25.8795 41.9066 25.9839C42.011 26.0884 42.1351 26.1713 42.2716 26.2278C42.4081 26.2843 42.5544 26.3134 42.7022 26.3134C43.7888 26.3254 44.8268 26.7655 45.591 27.5382C46.3551 28.3109 46.7837 29.3537 46.7836 30.4404C46.7836 31.5271 46.355 32.57 45.5909 33.3426C44.8267 34.1153 43.7887 34.5554 42.702 34.5674C42.5543 34.5674 42.408 34.5964 42.2715 34.653C42.135 34.7095 42.011 34.7924 41.9065 34.8968C41.8021 35.0013 41.7192 35.1253 41.6627 35.2618C41.6062 35.3983 41.5771 35.5446 41.5772 35.6924V40.4341H37.1431C36.8788 38.9615 36.1053 37.6286 34.9577 36.6686C33.8102 35.7086 32.3616 35.1826 30.8655 35.1826C29.3693 35.1826 27.9208 35.7086 26.7732 36.6686C25.6257 37.6286 24.8521 38.9615 24.5879 40.4341H19.0288C18.8811 40.434 18.7348 40.4631 18.5982 40.5196C18.4617 40.5762 18.3377 40.659 18.2332 40.7635C18.1288 40.868 18.0459 40.992 17.9894 41.1285C17.9328 41.265 17.9038 41.4113 17.9038 41.5591V61.407C17.9053 62.7196 18.4274 63.978 19.3556 64.9061C20.2838 65.8342 21.5422 66.3561 22.8548 66.3575H62.549C63.8615 66.3561 65.12 65.8342 66.0482 64.9061C66.9764 63.978 67.4985 62.7196 67.4999 61.407V22.4297C67.4985 21.1171 66.9764 19.8587 66.0482 18.9306C65.12 18.0025 63.8615 17.4806 62.549 17.4792ZM49.0792 30.4409C49.0774 28.945 48.5507 27.4972 47.591 26.3498C46.6312 25.2025 45.2992 24.4283 43.8272 24.1623V19.7292H62.549C63.265 19.7301 63.9514 20.0148 64.4577 20.5211C64.9641 21.0273 65.249 21.7137 65.2499 22.4297V40.4341H59.7908C59.6431 40.434 59.4968 40.4631 59.3603 40.5196C59.2238 40.5762 59.0997 40.659 58.9952 40.7635C58.8908 40.868 58.8079 40.992 58.7514 41.1285C58.6949 41.265 58.6658 41.4113 58.6658 41.5591C58.6536 42.6457 58.2134 43.6837 57.4407 44.4478C56.668 45.2118 55.6252 45.6404 54.5385 45.6403C53.4518 45.6403 52.4089 45.2118 51.6363 44.4477C50.8636 43.6836 50.4234 42.6456 50.4113 41.559C50.4113 41.4112 50.3822 41.2649 50.3257 41.1284C50.2691 40.9919 50.1863 40.8679 50.0818 40.7634C49.9773 40.659 49.8533 40.5761 49.7168 40.5196C49.5803 40.4631 49.434 40.434 49.2863 40.4341H43.8272V36.7185C45.299 36.4526 46.6309 35.6786 47.5907 34.5314C48.5505 33.3842 49.0772 31.9366 49.0792 30.4409ZM20.1538 61.407V42.6841H25.6134C25.7612 42.6841 25.9075 42.6551 26.044 42.5985C26.1805 42.542 26.3045 42.4591 26.409 42.3547C26.5135 42.2502 26.5964 42.1262 26.6529 41.9897C26.7094 41.8531 26.7385 41.7068 26.7384 41.5591C26.7402 40.4657 27.1758 39.4177 27.9496 38.6453C28.7234 37.8728 29.7721 37.4389 30.8654 37.4389C31.9588 37.4389 33.0075 37.8728 33.7813 38.6453C34.555 39.4177 34.9907 40.4657 34.9925 41.5591C34.9924 41.7068 35.0215 41.8531 35.078 41.9897C35.1345 42.1262 35.2174 42.2502 35.3219 42.3547C35.4264 42.4591 35.5504 42.542 35.6869 42.5985C35.8234 42.6551 35.9697 42.6841 36.1175 42.6841H41.5771V47.1182C40.1042 47.3823 38.771 48.1558 37.8108 49.3035C36.8506 50.4512 36.3245 51.8999 36.3245 53.3963C36.3245 54.8927 36.8506 56.3414 37.8108 57.4891C38.771 58.6368 40.1042 59.4103 41.5771 59.6744V64.1074H22.8548C22.1388 64.1066 21.4524 63.8218 20.946 63.3156C20.4397 62.8094 20.1548 62.123 20.1538 61.407ZM62.549 64.1075H43.8272V58.6483C43.8272 58.5006 43.7981 58.3543 43.7416 58.2178C43.6851 58.0812 43.6022 57.9572 43.4977 57.8527C43.3933 57.7483 43.2692 57.6654 43.1327 57.6089C42.9962 57.5524 42.8499 57.5233 42.7022 57.5233C41.6076 57.5233 40.5579 57.0885 39.7839 56.3145C39.0099 55.5406 38.5751 54.4909 38.5751 53.3963C38.5751 52.3017 39.0099 51.252 39.7839 50.4781C40.5579 49.7041 41.6076 49.2693 42.7022 49.2693C42.8499 49.2693 42.9962 49.2403 43.1327 49.1837C43.2692 49.1272 43.3933 49.0443 43.4977 48.9399C43.6022 48.8354 43.6851 48.7114 43.7416 48.5749C43.7981 48.4383 43.8272 48.292 43.8272 48.1443V43.4015H48.2607C48.5247 44.8744 49.2982 46.2075 50.4458 47.1677C51.5935 48.1279 53.0422 48.654 54.5385 48.654C56.0349 48.654 57.4836 48.1279 58.6312 47.1677C59.7789 46.2075 60.5524 44.8744 60.8164 43.4015H65.2499V61.407C65.249 62.123 64.9641 62.8094 64.4577 63.3156C63.9514 63.8218 63.2649 64.1066 62.549 64.1075Z" fill="#DBAF6B"/>
</svg>
