<svg width="76" height="84" viewBox="0 0 76 84" fill="none" xmlns="http://www.w3.org/2000/svg">
<path d="M39.411 32.7884V36.199C39.411 37.4815 40.4543 38.5248 41.7368 38.5248H42.2108V45.2888L39.5788 47.9207C39.348 48.1517 39.2183 48.4649 39.2183 48.7914V51.5213C39.2183 52.2013 39.7694 52.7527 40.4497 52.7527C41.1299 52.7527 41.6811 52.2013 41.6811 51.5213V49.3014L44.3131 46.6694C44.5439 46.4384 44.6737 46.1253 44.6737 45.7987V38.5248H45.1475C46.43 38.5248 47.4733 37.4815 47.4733 36.199V32.7884C47.4733 31.506 46.43 30.4625 45.1475 30.4625H41.7368C40.4544 30.4625 39.411 31.506 39.411 32.7884ZM41.8739 32.9254H45.0104V36.0619H41.8739V32.9254Z" fill="#DBAF6B"/>
<path d="M24.2916 28.725C23.0091 28.725 21.9658 29.7682 21.9658 31.0507V35.2015C21.9658 36.484 23.0091 37.5274 24.2916 37.5274H28.4423C29.7248 37.5274 30.7681 36.4841 30.7681 35.2015V31.0507C30.7681 29.7682 29.7248 28.725 28.4423 28.725H24.2916ZM28.3052 35.0645H24.4287V31.188H28.3052V35.0645Z" fill="#DBAF6B"/>
<path d="M27.158 20.5493V23.0686C27.158 24.3511 28.2012 25.3944 29.4837 25.3944H32.0031C33.2855 25.3944 34.3288 24.3511 34.3288 23.0686V20.5493C34.3288 19.2668 33.2855 18.2235 32.0031 18.2235H29.4837C28.2012 18.2235 27.158 19.2668 27.158 20.5493ZM29.6208 20.6864H31.866V22.9315H29.6208V20.6864Z" fill="#DBAF6B"/>
<path d="M8.08533 44.6668C8.08533 43.3843 7.04206 42.3411 5.7594 42.3411H3.24006C1.95757 42.3411 0.914307 43.3843 0.914307 44.6668V47.1862C0.914307 48.4687 1.95757 49.5119 3.24006 49.5119H5.7594C7.04189 49.5119 8.08533 48.4687 8.08533 47.1862V44.6668ZM5.62247 47.0491H3.37716V44.8039H5.6223L5.62247 47.0491Z" fill="#DBAF6B"/>
<path d="M14.1436 54.2244H10.0147C8.73223 54.2244 7.68896 55.2676 7.68896 56.5501V60.6789C7.68896 61.9613 8.73223 63.0048 10.0147 63.0048H14.1436C15.4261 63.0048 16.4694 61.9615 16.4694 60.6789V56.5501C16.4694 55.2678 15.4259 54.2244 14.1436 54.2244ZM14.0065 60.5419H10.1518V56.6872H14.0065V60.5419Z" fill="#DBAF6B"/>
<path d="M66.6873 34.231C66.6873 33.1039 66.6173 31.9636 66.4794 30.842C66.3963 30.167 65.78 29.6874 65.1069 29.7701C64.432 29.8531 63.952 30.4676 64.0349 31.1426C64.1607 32.1649 64.2244 33.204 64.2244 34.231C64.2244 41.1733 61.4491 47.629 56.4096 52.4087C52.922 55.7165 50.1198 59.8439 48.2638 64.3861H46.8639V57.4917L52.3774 51.9782C52.6083 51.7474 52.738 51.4341 52.738 51.1075V48.0048C53.8653 47.9922 54.779 47.0722 54.779 45.9418V43.2503C54.779 42.1122 53.853 41.1863 52.715 41.1863H50.0234C48.8853 41.1863 47.9594 42.1123 47.9594 43.2503V45.9418C47.9594 47.0799 48.8854 48.006 50.0234 48.006H50.2751V50.5974L44.7616 56.1109C44.5308 56.3417 44.401 56.655 44.401 56.9816V64.3861H41.6809V56.769C41.6809 56.0889 41.1297 55.5375 40.4495 55.5375C39.7692 55.5375 39.218 56.0889 39.218 56.769V64.3861H35.1442V49.0776H35.618C36.9005 49.0776 37.9438 48.0344 37.9438 46.7519V43.3413C37.9438 42.0588 36.9005 41.0156 35.618 41.0156H32.2074C30.925 41.0156 29.8815 42.0588 29.8815 43.3413V46.7519C29.8815 48.0344 30.9248 49.0776 32.2074 49.0776H32.6813V64.3861H30.0733C28.5921 60.7969 26.5086 57.4586 23.8682 54.4544C23.4191 53.9434 22.6412 53.8933 22.1304 54.3424C21.6196 54.7915 21.5694 55.5694 22.0184 56.0802C24.3465 58.7291 26.2096 61.6528 27.5702 64.7872C26.1329 65.464 25.1353 66.9258 25.1353 68.617C25.1353 70.881 26.9226 72.735 29.1604 72.8427V74.5987C29.1604 76.1571 30.162 77.4852 31.5549 77.9753C32.0547 81.3785 34.9929 83.9998 38.5327 83.9998H39.8103C43.3501 83.9998 46.2883 81.3785 46.788 77.9753C48.181 77.4852 49.1826 76.1572 49.1826 74.5987V72.8427C51.4204 72.735 53.2077 70.881 53.2077 68.617C53.2077 66.9237 52.2075 65.4602 50.767 64.7846C52.4894 60.7746 55.0058 57.1345 58.1044 54.1954C63.6392 48.9461 66.6873 41.8559 66.6873 34.231ZM50.4224 43.6495H52.3163V45.5434H50.4224V43.6495ZM32.3447 43.4786H35.4812V46.6151H32.3447V43.4786ZM39.8104 81.5371H38.5329C36.428 81.5371 34.6493 80.1131 34.1099 78.1778H44.2336C43.6939 80.1131 41.9154 81.5371 39.8104 81.5371ZM48.9769 70.3853H44.9166C44.2364 70.3853 43.6852 70.9366 43.6852 71.6167C43.6852 72.2968 44.2364 72.8481 44.9166 72.8481H46.7197V74.5989C46.7197 75.2143 46.219 75.7149 45.6036 75.7149H32.7393C32.1239 75.7149 31.6233 75.2143 31.6233 74.5989V72.8481H39.6686C40.3488 72.8481 40.9 72.2968 40.9 71.6167C40.9 70.9366 40.3488 70.3853 39.6686 70.3853H29.3661C28.3912 70.3853 27.598 69.5921 27.598 68.6171C27.598 67.6829 28.3268 66.9176 29.2454 66.8552C29.2604 66.8552 29.2757 66.8549 29.2906 66.8544C29.3187 66.8534 29.3466 66.8516 29.3743 66.8498L29.3824 66.8493H48.9764L48.966 66.8498C48.9928 66.8516 49.0196 66.8532 49.0465 66.8544C49.0626 66.855 49.0785 66.8552 49.0944 66.8554C50.0142 66.9164 50.7445 67.6824 50.7445 68.6174C50.745 69.5922 49.9518 70.3853 48.9769 70.3853Z" fill="#DBAF6B"/>
<path d="M14.1189 34.2314C14.1189 28.9503 15.7556 23.8933 18.8521 19.6068C19.2504 19.0556 19.1263 18.2857 18.5749 17.8875C18.0237 17.4892 17.2538 17.6133 16.8557 18.1647C13.454 22.8735 11.6561 28.4294 11.6563 34.2314C11.6563 40.8522 14.0441 47.2512 18.3798 52.2493C18.6233 52.5301 18.966 52.6737 19.3106 52.6737C19.5967 52.6737 19.884 52.5746 20.117 52.3726C20.6307 51.927 20.6859 51.1492 20.2403 50.6355C16.2928 46.0851 14.1189 40.2593 14.1189 34.2314Z" fill="#DBAF6B"/>
<path d="M32.7521 9.97446C32.8518 9.97446 32.9534 9.96215 33.0546 9.9367C35.0657 9.42886 37.1477 9.1696 39.2289 9.17831C40.5096 9.18126 41.7964 9.28175 43.0533 9.47713C43.7266 9.58156 44.3548 9.1215 44.4592 8.44946C44.5636 7.77743 44.1036 7.14793 43.4316 7.0435C42.0517 6.8289 40.6395 6.71857 39.2344 6.71545C36.9393 6.70576 34.6613 6.9908 32.4515 7.54871C31.7921 7.7152 31.3926 8.38477 31.5589 9.04416C31.7 9.60241 32.2014 9.97446 32.7521 9.97446Z" fill="#DBAF6B"/>
<path d="M22.0172 16.8698H26.8176C28.1001 16.8698 29.1434 15.8265 29.1434 14.544V9.7434C29.1434 8.46091 28.1001 7.41748 26.8176 7.41748H22.0172C20.7347 7.41748 19.6914 8.46075 19.6914 9.7434V14.544C19.6914 15.8263 20.7348 16.8698 22.0172 16.8698ZM22.1543 9.8805H26.6805V14.4069H22.1543V9.8805Z" fill="#DBAF6B"/>
<path d="M65.9952 58.4818H60.6795C59.397 58.4818 58.3538 59.5251 58.3538 60.8076V66.1232C58.3538 67.4057 59.397 68.4492 60.6795 68.4492H65.9952C67.2777 68.4492 68.3209 67.4059 68.3209 66.1232V60.8076C68.3209 59.5252 67.2777 58.4818 65.9952 58.4818ZM65.8581 65.9863H60.8166V60.9447H65.8581V65.9863Z" fill="#DBAF6B"/>
<path d="M72.4842 48.0393H69.357C68.0745 48.0393 67.0312 49.0826 67.0312 50.3651V53.4921C67.0312 54.7746 68.0745 55.8178 69.357 55.8178H72.4842C73.7667 55.8178 74.8099 54.7746 74.8099 53.4921V50.3651C74.8099 49.0827 73.7665 48.0393 72.4842 48.0393ZM72.3471 53.3551H69.4941V50.5023H72.3471V53.3551Z" fill="#DBAF6B"/>
<path d="M11.9102 7.63547H14.8056C16.0881 7.63547 17.1313 6.59221 17.1313 5.30955V2.41438C17.1313 1.13189 16.0881 0.088623 14.8056 0.088623H11.9102C10.6277 0.088623 9.58447 1.13189 9.58447 2.41438V5.30972C9.58447 6.59221 10.6279 7.63547 11.9102 7.63547ZM12.0473 2.55148H14.6685V5.17262H12.0473V2.55148Z" fill="#DBAF6B"/>
<path d="M4.35383 17.5479H6.608C7.8905 17.5479 8.93393 16.5046 8.93393 15.2221V12.968C8.93393 11.6855 7.89066 10.6422 6.608 10.6422H4.35383C3.07134 10.6422 2.02808 11.6855 2.02808 12.968V15.2221C2.02808 16.5046 3.07134 17.5479 4.35383 17.5479ZM4.49093 13.1051H6.47107V15.0852H4.49093V13.1051Z" fill="#DBAF6B"/>
<path d="M66.149 7.70496H56.4885C55.8083 7.70496 55.2571 8.25631 55.2571 8.93638V18.5969C55.2571 19.2769 55.8083 19.8283 56.4885 19.8283H66.149C66.8292 19.8283 67.3804 19.2769 67.3804 18.5969V8.93638C67.3804 8.25631 66.8292 7.70496 66.149 7.70496ZM64.9176 17.3654H57.7199V10.1678H64.9176V17.3654Z" fill="#DBAF6B"/>
<path d="M73.854 14.9981C74.5342 14.9981 75.0854 14.4468 75.0854 13.7667C75.0854 13.0866 74.5342 12.5353 73.854 12.5353H72.306V9.12735H73.854C74.5342 9.12735 75.0854 8.576 75.0854 7.89592C75.0854 7.21584 74.5342 6.66449 73.854 6.66449H72.306V6.60899C72.306 4.49734 70.5881 2.77942 68.4764 2.77942H68.4208V1.23143C68.4208 0.551352 67.8696 0 67.1893 0C66.5091 0 65.9579 0.551352 65.9579 1.23143V2.77925H62.5501V1.23143C62.5501 0.551352 61.999 0 61.3187 0C60.6385 0 60.0873 0.551352 60.0873 1.23143V2.77925H56.6793V1.23143C56.6793 0.551352 56.1282 0 55.4479 0C54.7677 0 54.2165 0.551352 54.2165 1.23143V2.77925H54.1608C52.0492 2.77925 50.3313 4.49718 50.3313 6.60883V6.66449H48.7834C48.1032 6.66449 47.552 7.21584 47.552 7.89592C47.552 8.576 48.1032 9.12735 48.7834 9.12735H50.3313V12.5351H48.7834C48.1032 12.5351 47.552 13.0865 47.552 13.7665C47.552 14.4466 48.1032 14.998 48.7834 14.998H50.3313V18.4059H48.7834C48.1032 18.4059 47.552 18.9573 47.552 19.6373C47.552 20.3174 48.1032 20.8688 48.7834 20.8688H50.3313V20.9243C50.3313 23.0359 52.0492 24.7538 54.1608 24.7538H54.2165V26.3017C54.2165 26.9817 54.7677 27.5331 55.4479 27.5331C56.1282 27.5331 56.6793 26.9817 56.6793 26.3017V24.7538H60.0873V26.3017C60.0873 26.9817 60.6385 27.5331 61.3187 27.5331C61.999 27.5331 62.5501 26.9817 62.5501 26.3017V24.7538H65.9581V26.3017C65.9581 26.9817 66.5093 27.5331 67.1895 27.5331C67.8697 27.5331 68.4209 26.9817 68.4209 26.3017V24.7538H68.4764C70.5881 24.7538 72.306 23.0359 72.306 20.9243V20.8686H73.854C74.5342 20.8686 75.0854 20.3173 75.0854 19.6372C75.0854 18.9571 74.5342 18.4058 73.854 18.4058H72.306V14.9981H73.854ZM69.8432 20.9244C69.8432 21.6781 69.2301 22.2912 68.4764 22.2912H54.161C53.4074 22.2912 52.7943 21.6781 52.7943 20.9244V6.60883C52.7943 5.8552 53.4074 5.24211 54.161 5.24211H68.4764C69.2301 5.24211 69.8432 5.8552 69.8432 6.60883V20.9244Z" fill="#DBAF6B"/>
</svg>
