<svg width="83" height="83" viewBox="0 0 83 83" fill="none" xmlns="http://www.w3.org/2000/svg">
<g clip-path="url(#clip0_410_15191)">
<path d="M82.8767 43.1437L75.6191 16.0569C75.1117 14.1651 73.1599 13.0384 71.2681 13.5442L66.0011 14.9562C65.6899 15.0405 65.424 15.2431 65.2635 15.5219C65.103 15.8008 65.0593 16.1331 65.1419 16.4443L66.0368 19.7854L25.0766 30.7602C22.7698 31.3778 21.3951 33.7576 22.0144 36.066L22.3045 37.1489L8.5528 40.8337L8.46364 40.503C8.0681 39.0262 6.54427 38.1459 5.06583 38.5415L2.05546 39.3471C1.34056 39.5384 0.742374 39.9972 0.371143 40.6391C-8.71192e-05 41.2811 -0.0973527 42.0284 0.0939363 42.7433L4.1256 57.7919C4.45792 59.0305 5.58134 59.8475 6.80526 59.8475C7.04194 59.8475 7.28349 59.8167 7.52179 59.7535L10.5322 58.9478C12.009 58.5522 12.8892 57.0284 12.4937 55.55L12.4045 55.2193L26.1563 51.5345L26.4464 52.6174C26.9652 54.5497 28.7192 55.8288 30.6321 55.8288C31.0017 55.8288 31.3778 55.7818 31.7523 55.6813L33.6765 55.1658C33.8694 55.6148 34.1012 56.0428 34.3655 56.4481L21.3189 80.5683H18.8014C18.1302 80.5683 17.5855 81.113 17.5855 81.7841C17.5855 82.4553 18.1302 82.9999 18.8014 82.9999H33.3912C34.0623 82.9999 34.607 82.4553 34.607 81.7841C34.607 81.113 34.0623 80.5683 33.3912 80.5683H32.0003L36.1033 71.0849H46.89L50.993 80.5683H49.6021C48.931 80.5683 48.3863 81.113 48.3863 81.7841C48.3863 82.4553 48.931 82.9999 49.6021 82.9999H64.192C64.8631 82.9999 65.4078 82.4553 65.4078 81.7841C65.4078 81.113 64.8631 80.5683 64.192 80.5683H61.6744L48.6279 56.4481C49.4984 55.1139 50.0074 53.522 50.0074 51.8117C50.0074 51.4713 49.9847 51.1357 49.9458 50.8066L72.7108 44.7065L73.6057 48.0459C73.7516 48.589 74.2428 48.9473 74.7794 48.9473C74.8831 48.9473 74.9901 48.9343 75.0955 48.9051L80.3624 47.4931C81.2783 47.2467 82.0451 46.6599 82.5201 45.838C82.995 45.0161 83.1199 44.058 82.8751 43.1421L82.8767 43.1437ZM9.9048 56.6004L6.89442 57.4061C6.71286 57.4548 6.52482 57.3461 6.47618 57.1646L2.44452 42.116C2.41372 42.0025 2.44614 41.9117 2.47857 41.8566C2.51099 41.8015 2.57259 41.7269 2.68606 41.6977L5.69644 40.892C5.72886 40.8839 5.75804 40.8791 5.78722 40.8791C5.85855 40.8791 5.91691 40.9018 5.95743 40.9261C6.01417 40.9585 6.08712 41.0201 6.1163 41.1336L10.148 56.1822C10.1966 56.3638 10.088 56.5518 9.90642 56.6004H9.9048ZM11.7772 52.8719L9.18017 43.1826L22.9319 39.4979L25.5289 49.1872L11.7772 52.8719ZM41.4999 57.8908C38.1475 57.8908 35.4208 55.1641 35.4208 51.8117C35.4208 48.4593 38.1475 45.7326 41.4999 45.7326C44.8523 45.7326 47.579 48.4593 47.579 51.8117C47.579 55.1641 44.8523 57.8908 41.4999 57.8908ZM24.0861 80.5683L36.0887 58.3772C36.7696 58.938 37.5396 59.3952 38.3712 59.7259L29.3531 80.5699H24.0861V80.5683ZM37.1586 68.6533L40.7769 60.29C41.0152 60.3095 41.2551 60.3225 41.4999 60.3225C41.7447 60.3225 41.9846 60.3095 42.2229 60.29L45.8412 68.6533H37.1586ZM53.6468 80.5683L44.6286 59.7243C45.4619 59.3936 46.2319 58.9381 46.9111 58.3755L58.9137 80.5667H53.6468V80.5683ZM41.4999 43.301C36.8068 43.301 32.9892 47.1187 32.9892 51.8117C32.9892 52.1522 33.0119 52.4877 33.0508 52.8168L31.1249 53.3323C30.1134 53.603 29.0694 53 28.7986 51.9884L24.3633 35.4354C24.0926 34.4239 24.6957 33.3799 25.7072 33.1092L59.1439 24.1494L64.5632 44.3725L49.3217 48.4561C48.0167 45.4262 45.0031 43.2994 41.5015 43.2994L41.4999 43.301ZM66.9106 43.7435L61.4912 23.5204L66.6658 22.1344L72.0851 42.3575L66.9106 43.7435ZM80.4159 44.6238C80.2667 44.8832 80.0236 45.068 79.735 45.1458L75.6418 46.2416L67.8038 16.989L71.897 15.8932C72.4936 15.7327 73.1096 16.0893 73.2701 16.6859L80.5277 43.7727C80.6056 44.0613 80.565 44.3644 80.4159 44.6238Z" fill="#DBAF6B"/>
<path d="M57.6184 28.3351C57.445 27.6867 56.7771 27.3008 56.1286 27.4759L55.4299 27.6623C54.7815 27.8358 54.3957 28.5021 54.5708 29.1521C54.7167 29.6952 55.2079 30.0535 55.7444 30.0535C55.8482 30.0535 55.9552 30.0405 56.0605 30.0113L56.7592 29.8249C57.4077 29.6514 57.7935 28.9851 57.6184 28.3351Z" fill="#DBAF6B"/>
<path d="M51.6804 28.6674L36.3059 32.7866C35.6575 32.96 35.2717 33.6263 35.4467 34.2764C35.5926 34.8194 36.0838 35.1777 36.6204 35.1777C36.7242 35.1777 36.8312 35.1647 36.9365 35.1355L52.311 31.0163C52.9594 30.8429 53.3452 30.1766 53.1702 29.5266C52.9967 28.8781 52.3288 28.4939 51.6804 28.6674Z" fill="#DBAF6B"/>
</g>
<defs>
<clipPath id="clip0_410_15191">
<rect width="83" height="83" fill="white"/>
</clipPath>
</defs>
</svg>
