<svg width="36" height="36" viewBox="0 0 36 36" fill="none" xmlns="http://www.w3.org/2000/svg">
<g clip-path="url(#clip0_2007_416)">
<path d="M32.4987 30.4026C32.2789 30.4026 32.1061 30.2298 32.1061 30.01V12.4611C32.1061 12.2412 32.2789 12.0685 32.4987 12.0685C32.7186 12.0685 32.8913 12.2412 32.8913 12.4611V30.01C32.8913 30.2298 32.7107 30.4026 32.4987 30.4026ZM2.87367 29.2876C2.65382 29.2876 2.48108 29.1149 2.48108 28.895V12.4611C2.48108 12.2412 2.65382 12.0685 2.87367 12.0685C3.09352 12.0685 3.26626 12.2412 3.26626 12.4611V28.895C3.26626 29.1149 3.09352 29.2876 2.87367 29.2876Z" fill="white"/>
<path d="M33.9748 12.8535H1.39748C1.17762 12.8535 1.00488 12.6808 1.00488 12.4609V9.56361C1.00488 9.34376 1.17762 9.17102 1.39748 9.17102H33.9748C34.1947 9.17102 34.3674 9.34376 34.3674 9.56361V12.4609C34.3674 12.6808 34.1947 12.8535 33.9748 12.8535ZM1.79007 12.0684H33.5822V9.95621H1.79007V12.0684Z" fill="white"/>
<path d="M32.0668 9.96398C31.8469 9.96398 31.6742 9.79124 31.6742 9.57139V5.33924C31.6742 3.0308 29.7976 1.1542 27.4891 1.1542H7.88306C5.57462 1.1542 3.69803 3.0308 3.69803 5.33924V9.57139C3.69803 9.79124 3.52529 9.96398 3.30543 9.96398C3.08558 9.96398 2.91284 9.79124 2.91284 9.57139V5.33924C2.91284 2.59894 5.14277 0.369019 7.88306 0.369019H27.4891C30.2294 0.369019 32.4594 2.59894 32.4594 5.33924V9.57139C32.4594 9.78339 32.2788 9.96398 32.0668 9.96398Z" fill="white"/>
<path d="M24.4427 6.82324H10.9297C9.09236 6.82324 7.59265 5.32354 7.59265 3.4862V0.761611C7.59265 0.541759 7.76539 0.369019 7.98524 0.369019C8.2051 0.369019 8.37784 0.541759 8.37784 0.761611V3.4862C8.37784 4.89169 9.52421 6.03806 10.9297 6.03806H24.4427C25.8482 6.03806 26.9946 4.89169 26.9946 3.4862V0.761611C26.9946 0.541759 27.1673 0.369019 27.3872 0.369019C27.607 0.369019 27.7798 0.541759 27.7798 0.761611V3.4862C27.7798 5.32354 26.2801 6.82324 24.4427 6.82324Z" fill="white"/>
<path d="M17.69 18.2164C15.8763 18.2164 14.408 16.7403 14.408 14.9344V12.4689C14.408 12.249 14.5807 12.0763 14.8006 12.0763C15.0204 12.0763 15.1931 12.249 15.1931 12.4689V14.9344C15.1931 16.3084 16.316 17.4313 17.69 17.4313C19.0641 17.4313 20.1869 16.3084 20.1869 14.9344V12.4689C20.1869 12.249 20.3597 12.0763 20.5795 12.0763C20.7994 12.0763 20.9721 12.249 20.9721 12.4689V14.9344C20.9721 16.7403 19.496 18.2164 17.69 18.2164Z" fill="white"/>
<path d="M17.6901 16.6147C16.8814 16.6147 16.214 15.9551 16.214 15.1385C16.214 14.3219 16.8735 13.6624 17.6901 13.6624C18.4989 13.6624 19.1663 14.3219 19.1663 15.1385C19.1663 15.9551 18.4989 16.6147 17.6901 16.6147ZM17.6901 14.4554C17.3132 14.4554 16.9992 14.7616 16.9992 15.1464C16.9992 15.5311 17.3054 15.8373 17.6901 15.8373C18.0749 15.8373 18.3811 15.5311 18.3811 15.1464C18.3811 14.7616 18.067 14.4554 17.6901 14.4554Z" fill="white"/>
<path d="M29.617 29.7507C29.3972 29.7507 29.2245 29.578 29.2245 29.3581V15.5388H20.5717C20.3519 15.5388 20.1791 15.3661 20.1791 15.1463C20.1791 14.9264 20.3519 14.7537 20.5717 14.7537H29.6249C29.8447 14.7537 30.0175 14.9264 30.0175 15.1463V29.366C30.0096 29.578 29.8369 29.7507 29.617 29.7507ZM5.75526 28.2746C5.53541 28.2746 5.36267 28.1018 5.36267 27.882V15.1463C5.36267 14.9264 5.53541 14.7537 5.75526 14.7537H14.8084C15.0283 14.7537 15.201 14.9264 15.201 15.1463C15.201 15.3661 15.0283 15.5388 14.8084 15.5388H6.14786V27.882C6.14786 28.094 5.96726 28.2746 5.75526 28.2746Z" fill="white"/>
<path d="M15.2246 24.5214H5.75526C5.53541 24.5214 5.36267 24.3487 5.36267 24.1288C5.36267 23.9089 5.53541 23.7362 5.75526 23.7362H15.2246C15.4444 23.7362 15.6172 23.9089 15.6172 24.1288C15.6172 24.3487 15.4444 24.5214 15.2246 24.5214Z" fill="white"/>
<path d="M29.617 18.7738H20.4696C20.2498 18.7738 20.077 18.6011 20.077 18.3812C20.077 18.1614 20.2498 17.9886 20.4696 17.9886H29.617C29.8369 17.9886 30.0096 18.1614 30.0096 18.3812C30.0096 18.6011 29.8369 18.7738 29.617 18.7738Z" fill="white"/>
<path d="M19.2526 32.6558C19.1505 32.6558 19.0406 32.6166 18.9699 32.5302C15.4837 28.8241 11.4557 27.3087 6.988 28.0311C3.62741 28.5729 1.264 30.2453 1.24044 30.261C1.0677 30.3867 0.816444 30.3474 0.690814 30.1668C0.565185 29.9941 0.604444 29.7428 0.777185 29.6172C0.879259 29.5465 3.29763 27.8348 6.82311 27.2538C8.90385 26.9161 10.9375 27.0418 12.869 27.6307C15.2717 28.3687 17.5173 29.837 19.5353 31.9806C19.6844 32.1376 19.6766 32.3889 19.5196 32.5381C19.441 32.6166 19.3468 32.6558 19.2526 32.6558Z" fill="white"/>
<path d="M16.0256 35.0744C15.9235 35.0744 15.8214 35.0351 15.7429 34.9487C15.5937 34.7917 15.6016 34.5404 15.7586 34.3912C15.8607 34.297 18.2633 32.0435 21.781 30.4339C23.8617 29.4838 25.8953 28.9656 27.8269 28.8871C30.261 28.7929 32.5302 29.3975 34.5795 30.6852C34.7601 30.8029 34.815 31.0464 34.7051 31.2269C34.5952 31.4075 34.3439 31.4625 34.1633 31.3526C30.685 29.1541 26.6413 29.0834 22.1264 31.1406C18.7187 32.6952 16.3239 34.9409 16.3004 34.9566C16.2219 35.0429 16.1198 35.0744 16.0256 35.0744Z" fill="white"/>
</g>
<defs>
<clipPath id="clip0_2007_416">
<rect width="35.3333" height="35.3333" fill="white"/>
</clipPath>
</defs>
</svg>
