<svg width="39" height="39" viewBox="0 0 39 39" fill="none" xmlns="http://www.w3.org/2000/svg">
<path d="M35.2187 21.5728C35.2187 21.4042 35.1517 21.2426 35.0326 21.1234C34.9134 21.0043 34.7518 20.9373 34.5833 20.9373H32.677V3.78109C32.677 3.61256 32.6101 3.45094 32.4909 3.33178C32.3717 3.21262 32.2101 3.14567 32.0416 3.14567H28.8645V1.87484H27.5937V3.14567H26.3228V0.604004H25.052V3.14567H19.3333C19.1647 3.14567 19.0031 3.21262 18.8839 3.33178C18.7648 3.45094 18.6978 3.61256 18.6978 3.78109V13.3123H17.4067V14.5832H26.3228V37.4582H21.2395V34.2811C21.2395 34.1126 21.1726 33.9509 21.0534 33.8318C20.9342 33.7126 20.7726 33.6457 20.6041 33.6457H18.0624C17.8939 33.6457 17.7323 33.7126 17.6131 33.8318C17.4939 33.9509 17.427 34.1126 17.427 34.2811V37.4582H12.3437V14.5832H13.6552V13.3123H12.3437V10.1353C12.3437 9.96673 12.2767 9.80511 12.1576 9.68595C12.0384 9.56678 11.8768 9.49984 11.7083 9.49984H9.802V6.95817H8.53117V9.49984H7.26034V8.229H5.9895V9.49984H4.08325C3.91473 9.49984 3.75311 9.56678 3.63394 9.68595C3.51478 9.80511 3.44784 9.96673 3.44784 10.1353V37.4582H0.270752V38.729H38.3958V37.4582H35.2187V21.5728ZM7.26034 35.5519V37.4582H4.71867V10.7707H11.0728V37.4582H8.53117V35.5519H7.26034ZM19.9687 13.3123V4.4165H31.4062V20.9373H30.1353V19.6665H28.8645V20.9373H27.5937V13.9478C27.5937 13.7792 27.5267 13.6176 27.4076 13.4984C27.2884 13.3793 27.1268 13.3123 26.9583 13.3123H19.9687ZM18.6978 37.4582V34.9165H19.9687V37.4582H18.6978ZM31.4062 37.4582V35.5519H30.1353V37.4582H27.5937V22.2082H33.9478V37.4582H31.4062Z" fill="white"/>
</svg>
