<svg width="38" height="38" viewBox="0 0 38 38" fill="none" xmlns="http://www.w3.org/2000/svg">
<path d="M9.22988 26.4018C9.03726 26.4811 8.8622 26.5976 8.71475 26.7447C8.5673 26.8918 8.45038 27.0666 8.37069 27.259C8.29101 27.4514 8.25014 27.6577 8.25043 27.866C8.25072 28.0743 8.29216 28.2804 8.37238 28.4727L9.18321 30.4385C9.34573 30.8255 9.65445 31.1326 10.0422 31.2932C10.43 31.4538 10.8655 31.4548 11.254 31.296C11.3385 31.2583 11.4328 31.2487 11.5232 31.2686C11.6135 31.2886 11.695 31.337 11.7557 31.4068C12.1347 31.864 12.5545 32.2857 13.0099 32.6668C13.0763 32.7261 13.123 32.8042 13.1438 32.8907C13.1647 32.9772 13.1586 33.068 13.1265 33.151C12.9677 33.5395 12.9687 33.975 13.1293 34.3628C13.2899 34.7506 13.5971 35.0593 13.984 35.2218L15.9499 36.0327C16.3383 36.1931 16.7744 36.1929 17.1626 36.0321C17.5508 35.8713 17.8594 35.5632 18.0207 35.1752C18.0557 35.0926 18.1154 35.023 18.1917 34.9759C18.268 34.9289 18.3571 34.9068 18.4465 34.9127C19.0288 34.9638 19.6143 34.9638 20.1965 34.9127C20.288 34.9082 20.3786 34.9321 20.4559 34.9812C20.5332 35.0303 20.5934 35.1021 20.6282 35.1868C20.7068 35.3797 20.8232 35.5548 20.9704 35.7021C21.1177 35.8494 21.2929 35.9657 21.4857 36.0443C21.6707 36.1216 21.8686 36.1632 22.069 36.1668C22.2695 36.1638 22.4676 36.1222 22.6524 36.0443L24.6182 35.2335C25.0052 35.071 25.3124 34.7623 25.473 34.3745C25.6335 33.9867 25.6345 33.5512 25.4757 33.1627C25.438 33.0782 25.4284 32.9839 25.4484 32.8935C25.4683 32.8032 25.5168 32.7217 25.5865 32.661C26.0694 32.287 26.5148 31.8669 26.9165 31.4068C26.9773 31.337 27.0588 31.2886 27.1491 31.2686C27.2394 31.2487 27.3338 31.2583 27.4182 31.296C27.8067 31.4548 28.2422 31.4538 28.63 31.2932C29.0178 31.1326 29.3265 30.8255 29.489 30.4385L30.2999 28.4727C30.3801 28.2804 30.4215 28.0743 30.4218 27.866C30.4221 27.6577 30.3813 27.4514 30.3016 27.259C30.2219 27.0666 30.105 26.8918 29.9575 26.7447C29.8101 26.5976 29.635 26.4811 29.4424 26.4018C29.3567 26.3685 29.2838 26.3086 29.2345 26.231C29.1852 26.1533 29.162 26.0619 29.1682 25.9702C29.1682 25.6727 29.2091 25.3868 29.2091 25.0835H28.0424C28.0424 25.346 28.0424 25.6027 28.0074 25.8593C27.9764 26.2003 28.0561 26.5422 28.2347 26.8343C28.4134 27.1264 28.6814 27.3532 28.9991 27.481C29.1009 27.5248 29.1816 27.6066 29.2241 27.709C29.2666 27.8114 29.2675 27.9263 29.2265 28.0293L28.4099 29.9893C28.3673 30.0922 28.2856 30.1739 28.1828 30.2165C28.08 30.2592 27.9644 30.2593 27.8615 30.2168C27.5472 30.0843 27.1987 30.0559 26.8671 30.1357C26.5354 30.2154 26.2379 30.3992 26.0182 30.6602C25.6851 31.0623 25.3161 31.4333 24.9157 31.7685C24.6545 31.9867 24.4704 32.2831 24.3906 32.614C24.3107 32.9449 24.3394 33.2927 24.4724 33.606C24.5149 33.7089 24.5148 33.8244 24.4721 33.9272C24.4295 34.0301 24.3477 34.1117 24.2449 34.1543L22.2499 34.9652C22.2002 34.9867 22.1466 34.9978 22.0924 34.9978C22.0382 34.9978 21.9846 34.9867 21.9349 34.9652C21.8326 34.9215 21.7511 34.84 21.7074 34.7377C21.5791 34.4216 21.3531 34.1548 21.0624 33.9764C20.7716 33.798 20.4314 33.7172 20.0915 33.746C19.5715 33.7926 19.0483 33.7926 18.5282 33.746C18.1889 33.7159 17.8488 33.7953 17.5579 33.9728C17.2671 34.1502 17.0408 34.4163 16.9124 34.7318C16.8688 34.8321 16.7873 34.9112 16.6856 34.9516C16.584 34.992 16.4705 34.9906 16.3699 34.9477L14.404 34.1368C14.303 34.0953 14.2221 34.016 14.1785 33.9158C14.135 33.8156 14.1322 33.7024 14.1707 33.6002C14.3041 33.286 14.3331 32.9372 14.2532 32.6053C14.1734 32.2734 13.9891 31.976 13.7274 31.7568C13.3252 31.4237 12.9543 31.0547 12.619 30.6543C12.4008 30.3931 12.1044 30.209 11.7735 30.1292C11.4426 30.0493 11.0949 30.078 10.7815 30.211C10.6787 30.2535 10.5631 30.2534 10.4603 30.2107C10.3575 30.1681 10.2758 30.0863 10.2332 29.9835L9.41655 28.0235C9.3922 27.969 9.37941 27.9101 9.37899 27.8504C9.37857 27.7908 9.39052 27.7316 9.41409 27.6768C9.43766 27.622 9.47233 27.5727 9.51593 27.532C9.55953 27.4912 9.6111 27.46 9.66738 27.4402C9.97521 27.3129 10.2348 27.0913 10.4088 26.8073C10.5828 26.5233 10.6622 26.1914 10.6357 25.8593C10.6357 25.591 10.6007 25.3168 10.6007 25.0543H9.43405C9.43405 25.3518 9.43405 25.6377 9.47488 25.9643C9.48957 26.0542 9.47333 26.1464 9.42883 26.2259C9.38433 26.3053 9.31419 26.3674 9.22988 26.4018Z" fill="white"/>
<path d="M19.3332 31.5C21.035 31.5 22.6671 30.824 23.8705 29.6206C25.0739 28.4173 25.7499 26.7852 25.7499 25.0834H24.5832C24.5832 26.4758 24.0301 27.8111 23.0455 28.7957C22.061 29.7803 20.7256 30.3334 19.3332 30.3334C17.9408 30.3334 16.6055 29.7803 15.6209 28.7957C14.6364 27.8111 14.0832 26.4758 14.0832 25.0834H12.9166C12.9166 26.7852 13.5926 28.4173 14.796 29.6206C15.9993 30.824 17.6314 31.5 19.3332 31.5Z" fill="white"/>
<path d="M32.1665 9.33346C32.1665 9.17875 32.1051 9.03037 31.9957 8.92098C31.8863 8.81158 31.7379 8.75012 31.5832 8.75012H26.9165C26.7618 8.75012 26.6134 8.81158 26.504 8.92098C26.3946 9.03037 26.3332 9.17875 26.3332 9.33346V22.7501H22.2499V13.4168C22.2499 13.2621 22.1884 13.1137 22.079 13.0043C21.9696 12.8949 21.8212 12.8335 21.6665 12.8335H16.9999C16.8451 12.8335 16.6968 12.8949 16.5874 13.0043C16.478 13.1137 16.4165 13.2621 16.4165 13.4168V22.7501H12.3332V17.5001C12.3332 17.3454 12.2717 17.197 12.1623 17.0876C12.0529 16.9782 11.9046 16.9168 11.7499 16.9168H7.08319C6.92848 16.9168 6.78011 16.9782 6.67071 17.0876C6.56132 17.197 6.49986 17.3454 6.49986 17.5001V22.7501H1.83319V23.9168H36.8332V22.7501H32.1665V9.33346ZM11.1665 22.7501H7.66652V18.0835H11.1665V22.7501ZM21.0832 22.7501H17.5832V14.0001H21.0832V22.7501ZM30.9999 22.7501H27.4999V9.91679H30.9999V22.7501Z" fill="white"/>
<path d="M4.87238 14.8867L32.009 3.99008L30.9999 5.79258L32.0149 6.37591L33.8524 3.12091C33.8953 3.0452 33.9207 2.96085 33.9267 2.87405C33.9328 2.78724 33.9193 2.70018 33.8874 2.61925C33.8551 2.53745 33.8048 2.46401 33.7401 2.40441C33.6755 2.34481 33.5982 2.3006 33.514 2.27508L29.9265 1.16675L29.5882 2.33341L31.5832 2.91675L4.43488 13.8076L4.87238 14.8867Z" fill="white"/>
</svg>
