<svg width="40" height="39" viewBox="0 0 40 39" fill="none" xmlns="http://www.w3.org/2000/svg">
<g clip-path="url(#clip0_2007_355)">
<path d="M26.6458 22.3543C26.3129 22.3543 26.0416 22.0836 26.0416 21.7501H24.8333C24.8333 22.7494 25.6465 23.5626 26.6458 23.5626V24.771H27.8541V23.5626H29.6666V21.7501C29.6666 20.7508 28.8534 19.9376 27.8541 19.9376H26.6458C26.3129 19.9376 26.0416 19.667 26.0416 19.3335V18.7293H27.8541C28.187 18.7293 28.4583 19 28.4583 19.3335H29.6666C29.6666 18.3342 28.8534 17.521 27.8541 17.521V16.3126H26.6458V17.521H24.8333V19.3335C24.8333 20.3327 25.6465 21.146 26.6458 21.146H27.8541C28.187 21.146 28.4583 21.4166 28.4583 21.7501V22.3543H26.6458Z" fill="white"/>
<path d="M27.2498 27.1875C30.9141 27.1875 33.8957 24.206 33.8957 20.5417C33.8957 16.8774 30.9141 13.8959 27.2498 13.8959C23.5856 13.8959 20.604 16.8774 20.604 20.5417C20.604 24.206 23.5856 27.1875 27.2498 27.1875ZM27.2498 15.1042C30.2477 15.1042 32.6873 17.5432 32.6873 20.5417C32.6873 23.5402 30.2477 25.9792 27.2498 25.9792C24.252 25.9792 21.8123 23.5402 21.8123 20.5417C21.8123 17.5432 24.252 15.1042 27.2498 15.1042Z" fill="white"/>
<path d="M32.6874 13.2917H33.8957V14.5001H32.6874V13.2917Z" fill="white"/>
<path d="M20.604 13.8959H21.8123V15.1042H20.604V13.8959Z" fill="white"/>
<path d="M20.604 25.9792H21.8123V27.1876H20.604V25.9792Z" fill="white"/>
<path d="M32.6874 25.9792H33.8957V27.1876H32.6874V25.9792Z" fill="white"/>
<path d="M6.70823 22.3542H7.91656V10.875H5.94758L9.12489 5.42785L12.3022 10.875H10.3332V21.1459H11.5416V12.0834H14.4059L9.12489 3.03052L3.84387 12.0834H6.70823V22.3542Z" fill="white"/>
<path d="M6.70825 23.5626H7.91659V24.771H6.70825V23.5626Z" fill="white"/>
<path d="M10.3333 22.3542H11.5416V23.5626H10.3333V22.3542Z" fill="white"/>
<path d="M10.3333 24.7709H11.5416V25.9792H10.3333V24.7709Z" fill="white"/>
<path d="M36.3124 27.19V13.2917C36.3124 12.2925 35.4992 11.4792 34.4999 11.4792V7.85425C34.4999 3.85648 31.2477 0.604248 27.2499 0.604248C23.2521 0.604248 19.9999 3.85648 19.9999 7.85425V11.4792C19.0006 11.4792 18.1874 12.2925 18.1874 13.2917V29.0835C18.1747 29.0919 18.1602 29.0973 18.1475 29.1064L17.4002 29.6042H15.7708V28.3959H1.27075V38.0626H15.7708V36.8542H31.3794C33.152 36.8542 34.8171 35.9873 35.8339 34.5349L38.2874 31.0295C38.5762 30.6174 38.7291 30.1329 38.7291 29.629C38.7291 28.2914 37.647 27.2039 36.3124 27.19ZM21.2083 7.85425C21.2083 4.52287 23.9185 1.81258 27.2499 1.81258C30.5813 1.81258 33.2916 4.52287 33.2916 7.85425V11.4792H30.8749V7.85425C30.8749 5.85506 29.2491 4.22925 27.2499 4.22925C25.2507 4.22925 23.6249 5.85506 23.6249 7.85425V11.4792H21.2083V7.85425ZM29.6666 11.4792H24.8333V7.85425C24.8333 6.52146 25.9171 5.43758 27.2499 5.43758C28.5827 5.43758 29.6666 6.52146 29.6666 7.85425V11.4792ZM19.3958 13.2917C19.3958 12.9582 19.667 12.6876 19.9999 12.6876H34.4999C34.8328 12.6876 35.1041 12.9582 35.1041 13.2917V27.3839C34.7005 27.5495 34.3362 27.8087 34.0697 28.1645L32.9895 29.6042H30.159C29.9089 28.9028 29.2443 28.3959 28.4576 28.3959H20.4929C20.1183 28.3959 19.7516 28.4521 19.3958 28.5482V13.2917ZM30.2097 30.8126H32.0833L31.7208 31.2959C31.3806 31.7502 30.8381 32.0209 30.2708 32.0209H29.6527C29.9252 31.6602 30.1209 31.253 30.2097 30.8126ZM2.47909 29.6042H9.72908V36.8542H2.47909V29.6042ZM14.5624 36.8542H13.3541V32.0209H12.1458V36.8542H10.9374V29.6042H12.1458V30.8126H13.3541V29.6042H14.5624V36.8542ZM37.2978 30.3365L34.8437 33.8425C34.0534 34.9717 32.7581 35.6459 31.3794 35.6459H15.7708V30.8126H17.7663L18.8176 30.1117C19.3154 29.7795 19.8948 29.6042 20.4929 29.6042H28.4583C28.7911 29.6042 29.0624 29.8749 29.0624 30.2084C29.0624 30.693 28.8733 31.1491 28.5308 31.4917C28.1924 31.8294 27.7441 32.0161 27.2662 32.0209H26.0416V32.0221L23.4195 32.0215C23.4189 32.0215 23.4177 32.0215 23.4165 32.0215C22.6099 32.0215 21.8517 32.3363 21.2808 32.9066L20.7811 33.4063L21.6354 34.2606L22.135 33.7609C22.4776 33.419 22.9325 33.2299 23.4171 33.2299H23.4183L27.2469 33.2311H27.2481C27.2541 33.2311 27.2602 33.2292 27.2662 33.2292H30.2708C31.2163 33.2292 32.1201 32.7779 32.6874 32.0209L35.0358 28.8895C35.2678 28.5808 35.637 28.3959 36.023 28.3959H36.2876C36.9673 28.3959 37.5207 28.9493 37.5207 29.629C37.5207 29.8834 37.444 30.1281 37.2978 30.3365Z" fill="white"/>
</g>
<defs>
<clipPath id="clip0_2007_355">
<rect width="38.6667" height="38.6667" fill="white" transform="translate(0.666504)"/>
</clipPath>
</defs>
</svg>
