<svg width="38" height="38" viewBox="0 0 38 38" fill="none" xmlns="http://www.w3.org/2000/svg">
<circle cx="18.937" cy="18.937" r="18.937" fill="#2AA81A"/>
<path d="M27.2924 10.765C25.4617 8.92385 23.0295 7.79426 20.4347 7.58015C17.84 7.36605 15.2537 8.08155 13.143 9.59748C11.0322 11.1134 9.53598 13.3299 8.92445 15.8467C8.31291 18.3635 8.62636 21.0148 9.8082 23.3219L8.6503 28.9124C8.63791 28.9682 8.63743 29.026 8.64889 29.082C8.66036 29.1381 8.68352 29.1911 8.71688 29.2377C8.76466 29.3082 8.83294 29.3625 8.91261 29.3934C8.99228 29.4242 9.07952 29.4302 9.16267 29.4104L14.6627 28.1121C16.9763 29.2566 19.6232 29.5475 22.1323 28.9331C24.6414 28.3187 26.8499 26.8388 28.3646 24.7569C29.8794 22.6749 30.6021 20.126 30.4042 17.5638C30.2062 15.0016 29.1005 12.5924 27.2837 10.765H27.2924ZM25.5729 24.4014C24.3068 25.6583 22.6765 26.4889 20.9111 26.7765C19.1457 27.0641 17.334 26.7943 15.7308 26.0049L14.9608 25.6249L11.5827 26.4194V26.3762L12.2948 22.988L11.9185 22.251C11.0987 20.6524 10.8093 18.8366 11.0917 17.0643C11.3741 15.2919 12.2138 13.654 13.4903 12.3857C15.0931 10.7934 17.266 9.89901 19.5316 9.89901C21.7972 9.89901 23.9701 10.7934 25.5729 12.3857L25.6106 12.4375C27.1926 14.0349 28.0757 16.1893 28.0676 18.4313C28.0594 20.6733 27.1607 22.8212 25.5671 24.4072L25.5729 24.4014Z" fill="white"/>
<path d="M25.2747 21.9367C24.8608 22.5845 24.2037 23.3761 23.3845 23.5747C21.9371 23.9202 19.7342 23.5747 16.9755 21.0386L16.9408 21.0069C14.541 18.7788 13.9042 16.922 14.046 15.451C14.13 14.6133 14.8305 13.8591 15.421 13.364C15.5149 13.2852 15.626 13.2294 15.7455 13.201C15.8649 13.1726 15.9894 13.1724 16.1089 13.2004C16.2285 13.2284 16.3398 13.2837 16.434 13.3621C16.5281 13.4405 16.6026 13.5397 16.6513 13.6518L17.54 15.6497C17.598 15.7783 17.6198 15.9201 17.6029 16.0601C17.5861 16.2 17.5313 16.3328 17.4445 16.4442L16.9929 17.0199C16.899 17.1394 16.8431 17.284 16.8323 17.4353C16.8214 17.5866 16.8562 17.7376 16.9321 17.8691C17.361 18.4979 17.8743 19.0654 18.4576 19.5561C19.0852 20.1567 19.797 20.6638 20.5708 21.0616C20.712 21.1182 20.867 21.1317 21.0159 21.1005C21.1649 21.0692 21.3012 20.9946 21.4074 20.886L21.9255 20.3621C22.0241 20.2567 22.1501 20.1804 22.2896 20.1418C22.4291 20.1032 22.5766 20.1037 22.7158 20.1433L24.8289 20.745C24.9487 20.7788 25.0587 20.8403 25.1501 20.9243C25.2416 21.0083 25.3118 21.1126 25.3552 21.2286C25.3986 21.3447 25.414 21.4692 25.4 21.5922C25.386 21.7153 25.3431 21.8333 25.2747 21.9367Z" fill="white"/>
</svg>
