<svg width="38" height="38" viewBox="0 0 38 38" fill="none" xmlns="http://www.w3.org/2000/svg">
<circle cx="18.937" cy="18.937" r="18.937" fill="#6C4200"/>
<path d="M21.1732 12.5498H15.3192C14.7631 12.5498 14.3118 12.0985 14.3118 11.5424V10.0074C14.3118 9.4513 14.7631 9 15.3192 9H21.1732C21.7293 9 22.1806 9.4513 22.1806 10.0074V11.5424C22.1806 12.0992 21.7293 12.5498 21.1732 12.5498Z" fill="white"/>
<path d="M27.9432 19.8843C27.317 19.2581 26.2959 19.2581 25.6697 19.8843L24.9264 20.6317L27.2013 22.9059L27.9432 22.1639C28.5763 21.5316 28.5763 20.5173 27.9432 19.8843Z" fill="white"/>
<path d="M24.2057 21.3546L20.2373 25.3163C20.1556 25.4047 20.1011 25.5137 20.0807 25.6294L19.7812 27.3924C19.7131 27.7804 20.0535 28.1139 20.4415 28.0527L22.2045 27.7531C22.3202 27.7327 22.4291 27.6783 22.5108 27.5966L26.4792 23.6281L24.2057 21.3546Z" fill="white"/>
<path d="M24.0495 10.7766H23.2021V11.5424C23.2021 12.6608 22.292 13.5709 21.1736 13.5709H15.3196C14.2006 13.5709 13.2912 12.6608 13.2912 11.5424V10.7766H12.4301C11.0891 10.7766 10 11.8657 10 13.2067V25.6294C10 26.9703 11.0891 28.0595 12.4301 28.0595H18.8674C18.7639 27.7933 18.7251 27.5047 18.7755 27.2168L19.0743 25.4585C19.1274 25.1468 19.2704 24.8588 19.4855 24.624L23.8181 20.2975L24.9447 19.1648C25.3633 18.7455 25.9004 18.4971 26.4783 18.4256V13.2135C26.4796 11.8589 25.3973 10.7766 24.0495 10.7766ZM17.1868 20.8734H14.2332C13.8949 20.8734 13.6206 20.599 13.6206 20.2607C13.6206 19.9224 13.8949 19.6481 14.2332 19.6481H17.1868C17.5251 19.6481 17.7994 19.9224 17.7994 20.2607C17.7994 20.599 17.5251 20.8734 17.1868 20.8734ZM20.8026 17.3964H14.2339C13.8956 17.3964 13.6213 17.122 13.6213 16.7837C13.6213 16.4454 13.8956 16.1711 14.2339 16.1711H20.8026C21.1409 16.1711 21.4153 16.4454 21.4153 16.7837C21.4153 17.122 21.1409 17.3964 20.8026 17.3964Z" fill="white"/>
</svg>
