<svg width="16" height="16" viewBox="0 0 16 16" fill="none" xmlns="http://www.w3.org/2000/svg">
<path d="M8.37804 15.5141C8.32887 15.5141 8.27971 15.5141 8.2302 15.5138C7.06635 15.5167 5.99096 15.4871 4.94514 15.4234C3.98633 15.3651 3.11111 15.0337 2.41397 14.4653C1.7413 13.9168 1.28195 13.1751 1.0487 12.2612C0.845698 11.4655 0.834936 10.6844 0.824627 9.92892C0.81715 9.38687 0.809447 8.74456 0.807861 8.09138C0.809447 7.43548 0.81715 6.79317 0.824627 6.25111C0.834936 5.49575 0.845698 4.71467 1.0487 3.91886C1.28195 3.00491 1.7413 2.26325 2.41397 1.71474C3.11111 1.14629 3.98633 0.81494 4.94526 0.7566C5.99107 0.693048 7.06669 0.663368 8.23304 0.666201C9.39723 0.663708 10.4723 0.693048 11.5181 0.7566C12.4769 0.81494 13.3521 1.14629 14.0493 1.71474C14.7221 2.26325 15.1813 3.00491 15.4145 3.91886C15.6175 4.71456 15.6283 5.49575 15.6386 6.25111C15.6461 6.79317 15.6539 7.43548 15.6554 8.08866V8.09138C15.6539 8.74456 15.6461 9.38687 15.6386 9.92892C15.6283 10.6843 15.6177 11.4654 15.4145 12.2612C15.1813 13.1751 14.7221 13.9168 14.0493 14.4653C13.3521 15.0337 12.4769 15.3651 11.5181 15.4234C10.5166 15.4844 9.48775 15.5141 8.37804 15.5141ZM8.2302 14.3538C9.37514 14.3565 10.4264 14.3277 11.4476 14.2656C12.1726 14.2215 12.8012 13.9862 13.3162 13.5663C13.7922 13.1781 14.1201 12.6425 14.2906 11.9743C14.4596 11.312 14.4693 10.6008 14.4787 9.91306C14.4861 9.37463 14.4938 8.73686 14.4954 8.09002C14.4938 7.44307 14.4861 6.8054 14.4787 6.26697C14.4693 5.57924 14.4596 4.86805 14.2906 4.20558C14.1201 3.53744 13.7922 3.00185 13.3162 2.61363C12.8012 2.19381 12.1726 1.95852 11.4476 1.91445C10.4264 1.85226 9.37514 1.8236 8.23292 1.82609C7.08821 1.82338 6.03684 1.85226 5.0156 1.91445C4.2906 1.95852 3.662 2.19381 3.14702 2.61363C2.67101 3.00185 2.34317 3.53744 2.17268 4.20558C2.00367 4.86805 1.99392 5.57912 1.98452 6.26697C1.97716 6.80585 1.96945 7.44397 1.96787 8.09138C1.96945 8.73595 1.97716 9.37418 1.98452 9.91306C1.99392 10.6008 2.00367 11.312 2.17268 11.9743C2.34317 12.6425 2.67101 13.1781 3.14702 13.5663C3.662 13.9861 4.2906 14.2214 5.0156 14.2655C6.03684 14.3277 7.08844 14.3567 8.2302 14.3538ZM8.20256 11.715C6.20382 11.715 4.57754 10.0889 4.57754 8.09002C4.57754 6.09116 6.20382 4.465 8.20256 4.465C10.2014 4.465 11.8276 6.09116 11.8276 8.09002C11.8276 10.0889 10.2014 11.715 8.20256 11.715ZM8.20256 5.625C6.84341 5.625 5.73755 6.73086 5.73755 8.09002C5.73755 9.44917 6.84341 10.555 8.20256 10.555C9.56183 10.555 10.6676 9.44917 10.6676 8.09002C10.6676 6.73086 9.56183 5.625 8.20256 5.625ZM12.2336 3.30499C11.7532 3.30499 11.3636 3.69445 11.3636 4.17499C11.3636 4.65554 11.7532 5.045 12.2336 5.045C12.7141 5.045 13.1036 4.65554 13.1036 4.17499C13.1036 3.69445 12.7141 3.30499 12.2336 3.30499Z" fill="#B9B9B9"/>
</svg>
