<svg width="19" height="14" viewBox="0 0 19 14" fill="none" xmlns="http://www.w3.org/2000/svg">
<path d="M9.47402 13.9373C9.47243 13.9373 9.4707 13.9373 9.46896 13.9373C8.89718 13.9334 3.84234 13.8873 2.41021 13.5C1.40933 13.2309 0.619241 12.4417 0.349468 11.4407C-0.0252642 10.0338 -0.00140968 7.32525 0.00119263 7.10897C-0.00126511 6.89371 -0.0254087 4.16273 0.348311 2.74433C0.348745 2.74302 0.349034 2.74158 0.349468 2.74028C0.616205 1.75068 1.42408 0.937023 2.40775 0.66725C2.41021 0.666527 2.41281 0.665949 2.41527 0.665226C3.83121 0.293096 8.89602 0.247556 9.46896 0.243652H9.47923C10.0525 0.247556 15.1207 0.293674 16.5397 0.681563C17.538 0.94989 18.3275 1.7381 18.598 2.73782C18.9868 4.15723 18.9508 6.89414 18.9469 7.12517C18.9496 7.35272 18.9723 10.037 18.5997 11.4509C18.5994 11.4524 18.599 11.4537 18.5987 11.455C18.3288 12.456 17.5389 13.2452 16.5368 13.5146C16.5355 13.515 16.5341 13.5153 16.5328 13.5157C15.117 13.8877 10.052 13.9332 9.47923 13.9373C9.47749 13.9373 9.47576 13.9373 9.47402 13.9373ZM1.77929 3.12397C1.45024 4.37597 1.48133 7.07211 1.48162 7.09929V7.1188C1.47179 7.86653 1.50634 10.0319 1.77944 11.0575C1.91186 11.5487 2.30149 11.9377 2.79564 12.0706C3.85232 12.3564 7.96931 12.4463 9.47402 12.4569C10.9826 12.4463 15.1057 12.3588 16.1546 12.0844C16.6471 11.9511 17.0355 11.5634 17.1688 11.0717C17.4421 10.0311 17.4764 7.87622 17.4664 7.13326C17.4664 7.12545 17.4664 7.11765 17.4666 7.10984C17.4802 6.35315 17.4534 4.16244 17.1701 3.1286C17.1698 3.12759 17.1695 3.12658 17.1693 3.12556C17.0363 2.63228 16.6466 2.24324 16.1524 2.11037C15.106 1.82427 10.9824 1.73463 9.47402 1.72408C7.96642 1.73463 3.8474 1.82195 2.79535 2.09606C2.3106 2.23051 1.91215 2.63344 1.77929 3.12397ZM7.58721 10.0882V4.09261L12.7687 7.09047L7.58721 10.0882Z" fill="#B9B9B9"/>
</svg>
