<svg width="16" height="15" viewBox="0 0 16 15" fill="none" xmlns="http://www.w3.org/2000/svg">
<path d="M2.28516 0.109619C1.21416 0.109619 0.513916 0.812894 0.513916 1.73725C0.513916 2.6412 1.1933 3.36453 2.24407 3.36453H2.26439C3.35635 3.36453 4.03591 2.6412 4.03591 1.73725C4.01549 0.812894 3.35635 0.109619 2.28516 0.109619Z" fill="#B9B9B9"/>
<path d="M0.69873 4.65161H3.82973V14.0713H0.69873V4.65161Z" fill="#B9B9B9"/>
<path d="M11.5162 4.43018C9.82716 4.43018 8.69456 6.01734 8.69456 6.01734V4.65126H5.56348V14.071H8.69438V8.81065C8.69438 8.52903 8.7148 8.24786 8.79753 8.04648C9.02387 7.48415 9.53895 6.90158 10.4039 6.90158C11.5369 6.90158 11.99 7.76541 11.99 9.03173V14.071H15.1208V8.66988C15.1208 5.77655 13.576 4.43018 11.5162 4.43018Z" fill="#B9B9B9"/>
</svg>
