<svg width="38" height="38" viewBox="0 0 38 38" fill="none" xmlns="http://www.w3.org/2000/svg">
<circle cx="18.937" cy="18.937" r="18.937" fill="#DBAF6B"/>
<path d="M13.3443 9.41595C13.8482 10.0135 16.0799 13.5181 15.9774 14.1006C15.9286 14.3741 15.6942 14.5833 15.0225 15.1432C14.6919 15.4022 14.3822 15.6866 14.0964 15.9938C14.2331 16.5566 14.4362 17.1014 14.7014 17.6168C15.6911 19.6383 17.3338 21.2714 19.3668 22.255C19.8851 22.5188 20.433 22.7207 20.9989 22.8567C21.3078 22.5724 21.5938 22.2645 21.8542 21.9357C22.4172 21.2685 22.6262 21.0346 22.9026 20.9861C23.4897 20.8842 27.0125 23.1055 27.6134 23.6046C27.8622 23.8138 28.0293 24.0039 28.0293 24.2473C28.0293 24.9529 24.061 28.1443 23.5468 28.1443C23.5049 28.1443 19.3737 28.076 14.0655 22.8874C8.84805 17.6086 8.7793 13.5003 8.7793 13.4586C8.7793 12.9472 11.9885 9.00095 12.698 9.00095C12.9428 9.00095 13.1339 9.16709 13.3443 9.41595Z" fill="white"/>
<path d="M19.0918 13.7865L19.0918 12.4191C20.55 12.4208 21.948 12.9975 22.9791 14.0229C24.0102 15.0483 24.5902 16.4386 24.5918 17.8887L23.2168 17.8887C23.2157 16.801 22.7808 15.7583 22.0074 14.9892C21.2341 14.2201 20.1855 13.7876 19.0918 13.7865Z" fill="white"/>
<path d="M19.0918 10.3681L19.0918 9.00067C21.4613 9.00338 23.733 9.94066 25.4085 11.6069C27.0841 13.2731 28.0266 15.5323 28.0293 17.8887L26.6543 17.8887C26.6519 15.8948 25.8544 13.9833 24.4367 12.5734C23.0189 11.1635 21.0968 10.3704 19.0918 10.3681Z" fill="white"/>
</svg>
