<svg width="32" height="20" viewBox="0 0 32 20" fill="none" xmlns="http://www.w3.org/2000/svg">
<path d="M31.5997 17.448V18.7051H31.5537L20.7314 13.1679V13.1572L23.3038 13.1679L31.5997 17.448Z" fill="#D20A2B"/>
<path d="M31.5999 13.2022V16.3559L25.6152 13.1768L31.5999 13.2022Z" fill="#01247D"/>
<path d="M31.5998 8.53576V12.0236H17.7101V19.8383V19.84H14.2247V19.8383V12.0236H0.399902V8.53576H14.2247V0.721004V0.668457H17.7101V0.721004V8.53576H31.5998Z" fill="#D20A2B"/>
<path d="M31.5997 4.20483V7.35849H31.5652L25.6143 7.38312L31.5997 4.20483Z" fill="#01247D"/>
<path d="M31.5078 0.769531C31.5671 0.830338 31.6001 0.912022 31.5997 0.996962V2.04462L21.2274 7.39623V7.40115L18.8381 7.411V7.29442L31.5078 0.769531Z" fill="#D20A2B"/>
<path d="M30.1087 0.668457L18.8381 6.47328V0.721004V0.668457H30.1087Z" fill="#01247D"/>
<path d="M30.0093 19.84H18.8381V19.8384V14.0869L30.0093 19.84Z" fill="#01247D"/>
<path d="M13.0957 19.8384V19.84H1.92773V19.8384L13.0957 14.0869V19.8384Z" fill="#01247D"/>
<path d="M13.0957 0.721248V6.47352L1.84814 0.668701H13.0957V0.721248Z" fill="#01247D"/>
<path d="M11.0621 7.40314L8.47082 7.39247H8.47L0.399902 3.2281V1.94727L11.0621 7.40314Z" fill="#D20A2B"/>
<path d="M6.32049 7.3833L0.399902 7.35867V4.2395L6.32049 7.3833Z" fill="#01247D"/>
<path d="M17.71 19.8387V19.8403H18.8381V14.0872L30.0093 19.8403H31.2712C31.3583 19.8403 31.4419 19.8057 31.5035 19.7441C31.5651 19.6825 31.5997 19.599 31.5997 19.5119V18.7048H31.5537L20.7314 13.1676V13.157L23.3038 13.1676L31.5997 17.4478V16.3558L25.615 13.1767L31.5997 13.2021V12.0239H17.71V19.8387Z" fill="#F4F8FC"/>
<path d="M31.5997 2.04478L21.2273 7.39639V7.40131L18.8381 7.41116V7.29458L31.5077 0.769692C31.4772 0.73767 31.4405 0.712199 31.3999 0.694836C31.3592 0.677472 31.3155 0.66858 31.2712 0.668702H30.1086L18.8381 6.47353V0.668702H17.71V8.536H31.5997V7.35862H31.5652L25.6142 7.38325L31.5997 4.20496V2.04478Z" fill="#F4F8FC"/>
<path d="M0.399902 13.2013L6.32049 13.1767L0.399902 16.3213V18.4815L10.7074 13.1635V13.1586L13.0958 13.1488V13.2662L0.504175 19.7508L0.503354 19.7516C0.564337 19.8087 0.644785 19.8405 0.728322 19.8403H1.92788V19.8387L13.0958 14.0872V19.8403H14.2247V12.0239H0.399902V13.2013Z" fill="#F4F8FC"/>
<path d="M13.0958 0.721004V6.47328L1.84823 0.668457H0.728322C0.64122 0.668457 0.557685 0.703058 0.496094 0.764649C0.434503 0.82624 0.399902 0.909775 0.399902 0.996877V1.94683L11.0621 7.40271L8.47082 7.39204H8.47L0.399902 3.22767V4.2392L6.32049 7.383L0.399902 7.35837V8.53576H14.2247V0.668457H13.0958V0.721004Z" fill="#F4F8FC"/>
<path d="M0.504177 19.7507L0.503356 19.7516C0.470573 19.7209 0.444469 19.6837 0.426671 19.6425C0.408872 19.6012 0.39976 19.5567 0.399904 19.5118V18.4814L10.7074 13.1635V13.1585L13.0958 13.1487V13.2661L0.504177 19.7507Z" fill="#D20A2B"/>
</svg>
